<svg width="166" height="33" viewBox="0 0 166 33" fill="none" xmlns="http://www.w3.org/2000/svg">
<path opacity="0.8" d="M91 9L96 14L101 9" stroke="white" stroke-width="1.4" stroke-linecap="round" stroke-linejoin="round"/>
<path d="M17 16V5.824H13.064V4.8H22.12V5.824H18.184V16H17ZM23.5528 16V7.6H24.6408V9.888L24.5288 9.488C24.7634 8.848 25.1581 8.36267 25.7128 8.032C26.2674 7.69067 26.9554 7.52 27.7768 7.52V8.624C27.7341 8.624 27.6914 8.624 27.6488 8.624C27.6061 8.61333 27.5634 8.608 27.5208 8.608C26.6354 8.608 25.9421 8.88 25.4408 9.424C24.9394 9.95733 24.6888 10.72 24.6888 11.712V16H23.5528ZM34.4886 16V14.144L34.4406 13.84V10.736C34.4406 10.0213 34.238 9.472 33.8326 9.088C33.438 8.704 32.846 8.512 32.0566 8.512C31.5126 8.512 30.9953 8.60267 30.5046 8.784C30.014 8.96533 29.598 9.20533 29.2566 9.504L28.7446 8.656C29.1713 8.29333 29.6833 8.016 30.2806 7.824C30.878 7.62133 31.5073 7.52 32.1686 7.52C33.2566 7.52 34.094 7.792 34.6806 8.336C35.278 8.86933 35.5766 9.68533 35.5766 10.784V16H34.4886ZM31.5926 16.08C30.9633 16.08 30.414 15.9787 29.9446 15.776C29.486 15.5627 29.134 15.2747 28.8886 14.912C28.6433 14.5387 28.5206 14.112 28.5206 13.632C28.5206 13.1947 28.622 12.8 28.8246 12.448C29.038 12.0853 29.3793 11.7973 29.8486 11.584C30.3286 11.36 30.9686 11.248 31.7686 11.248H34.6646V12.096H31.8006C30.99 12.096 30.4246 12.24 30.1046 12.528C29.7953 12.816 29.6406 13.1733 29.6406 13.6C29.6406 14.08 29.8273 14.464 30.2006 14.752C30.574 15.04 31.0966 15.184 31.7686 15.184C32.4086 15.184 32.958 15.04 33.4166 14.752C33.886 14.4533 34.2273 14.0267 34.4406 13.472L34.6966 14.256C34.4833 14.8107 34.11 15.2533 33.5766 15.584C33.054 15.9147 32.3926 16.08 31.5926 16.08ZM38.6621 16V7.6H39.7981V16H38.6621ZM39.2381 5.744C39.0035 5.744 38.8061 5.664 38.6461 5.504C38.4861 5.344 38.4061 5.152 38.4061 4.928C38.4061 4.704 38.4861 4.51733 38.6461 4.368C38.8061 4.208 39.0035 4.128 39.2381 4.128C39.4728 4.128 39.6701 4.20267 39.8301 4.352C39.9901 4.50133 40.0701 4.688 40.0701 4.912C40.0701 5.14667 39.9901 5.344 39.8301 5.504C39.6808 5.664 39.4835 5.744 39.2381 5.744ZM47.247 7.52C47.9297 7.52 48.527 7.65333 49.039 7.92C49.5617 8.176 49.967 8.57067 50.255 9.104C50.5537 9.63733 50.703 10.3093 50.703 11.12V16H49.567V11.232C49.567 10.3467 49.343 9.68 48.895 9.232C48.4577 8.77333 47.839 8.544 47.039 8.544C46.4417 8.544 45.919 8.66667 45.471 8.912C45.0337 9.14667 44.6923 9.49333 44.447 9.952C44.2123 10.4 44.095 10.944 44.095 11.584V16H42.959V7.6H44.047V9.904L43.871 9.472C44.1377 8.864 44.5643 8.38933 45.151 8.048C45.7377 7.696 46.4363 7.52 47.247 7.52ZM53.7715 16V7.6H54.9075V16H53.7715ZM54.3475 5.744C54.1128 5.744 53.9155 5.664 53.7555 5.504C53.5955 5.344 53.5155 5.152 53.5155 4.928C53.5155 4.704 53.5955 4.51733 53.7555 4.368C53.9155 4.208 54.1128 4.128 54.3475 4.128C54.5822 4.128 54.7795 4.20267 54.9395 4.352C55.0995 4.50133 55.1795 4.688 55.1795 4.912C55.1795 5.14667 55.0995 5.344 54.9395 5.504C54.7902 5.664 54.5928 5.744 54.3475 5.744ZM62.3564 7.52C63.039 7.52 63.6364 7.65333 64.1484 7.92C64.671 8.176 65.0764 8.57067 65.3644 9.104C65.663 9.63733 65.8124 10.3093 65.8124 11.12V16H64.6764V11.232C64.6764 10.3467 64.4524 9.68 64.0044 9.232C63.567 8.77333 62.9484 8.544 62.1484 8.544C61.551 8.544 61.0284 8.66667 60.5804 8.912C60.143 9.14667 59.8017 9.49333 59.5564 9.952C59.3217 10.4 59.2044 10.944 59.2044 11.584V16H58.0684V7.6H59.1564V9.904L58.9804 9.472C59.247 8.864 59.6737 8.38933 60.2604 8.048C60.847 7.696 61.5457 7.52 62.3564 7.52ZM72.4649 19.184C71.6969 19.184 70.9609 19.072 70.2569 18.848C69.5529 18.624 68.9822 18.304 68.5449 17.888L69.1209 17.024C69.5155 17.376 70.0009 17.6533 70.5769 17.856C71.1635 18.0693 71.7822 18.176 72.4329 18.176C73.4995 18.176 74.2835 17.9253 74.7849 17.424C75.2862 16.9333 75.5369 16.1653 75.5369 15.12V13.024L75.6969 11.584L75.5849 10.144V7.6H76.6729V14.976C76.6729 16.4267 76.3155 17.488 75.6009 18.16C74.8969 18.8427 73.8515 19.184 72.4649 19.184ZM72.2569 15.68C71.4569 15.68 70.7369 15.5093 70.0969 15.168C69.4569 14.816 68.9502 14.3307 68.5769 13.712C68.2142 13.0933 68.0329 12.384 68.0329 11.584C68.0329 10.784 68.2142 10.08 68.5769 9.472C68.9502 8.85333 69.4569 8.37333 70.0969 8.032C70.7369 7.69067 71.4569 7.52 72.2569 7.52C73.0035 7.52 73.6755 7.67467 74.2729 7.984C74.8702 8.29333 75.3449 8.752 75.6969 9.36C76.0489 9.968 76.2249 10.7093 76.2249 11.584C76.2249 12.4587 76.0489 13.2 75.6969 13.808C75.3449 14.416 74.8702 14.88 74.2729 15.2C73.6755 15.52 73.0035 15.68 72.2569 15.68ZM72.3689 14.672C72.9875 14.672 73.5369 14.544 74.0169 14.288C74.4969 14.0213 74.8755 13.6587 75.1529 13.2C75.4302 12.7307 75.5689 12.192 75.5689 11.584C75.5689 10.976 75.4302 10.4427 75.1529 9.984C74.8755 9.52533 74.4969 9.168 74.0169 8.912C73.5369 8.64533 72.9875 8.512 72.3689 8.512C71.7609 8.512 71.2115 8.64533 70.7209 8.912C70.2409 9.168 69.8622 9.52533 69.5849 9.984C69.3182 10.4427 69.1849 10.976 69.1849 11.584C69.1849 12.192 69.3182 12.7307 69.5849 13.2C69.8622 13.6587 70.2409 14.0213 70.7209 14.288C71.2115 14.544 71.7609 14.672 72.3689 14.672Z" fill="white"/>
</svg>
